<svg xmlns="http://www.w3.org/2000/svg" viewBox="0 0 512 512">
  <rect width="512" height="512" rx="112" fill="#FF4C00"/>
  <svg x="86" y="184" width="340" height="144" viewBox="0 0 760 320">
    <path fill="#fff" d="M657.86,248.74c-25.77-1.21-49.42-14.95-63.2-36.96l-13.25-23.52-33.24-6.42v-6.44l25.96-.06h122.08c22.88,0,45.6-8.76,61.21-23.13,17.43-16.02,28.35-39,28.35-64.54,0-28.82-13.9-54.38-35.37-70.35-14.6-10.88-34.59-17.32-54.19-17.32l-251.01.07v65.46s0,0,0,0v248.84h71.71l-1.04-95.41,18.71,29.87.24.39c24.2,38.63,65.72,62.8,110.97,64.98,2.18.12,4.39.17,6.59.17h125.26v-65.54h-116.06c-1.24,0-2.48-.02-3.72-.09ZM515.52,119.87v-41.93l-14.33-5.97v-6.44h177.27c5.96,0,11.45,1.91,15.92,5.16,1.17.84,2.27,1.79,3.29,2.8,4.92,4.92,7.96,11.72,7.96,19.21,0,15-12.16,27.17-27.17,27.17h-162.94Z"/>
    <path fill="#fff" d="M177.59,119.87h213.39v194.5h-72.97l2.3-95.41-18.71,29.87-.24.39c-25.39,40.53-69.84,65.15-117.66,65.15h-6.11v-.67l-.41.67h-17.73C72.64,314.37,0,243.99,0,157.18c0-43.41,18.16-82.7,47.17-111.14C76.18,17.59,116.05,0,159.45,0l225.16.07v65.46h-212.45c-50.62,0-91.65,41.04-91.65,91.65,0,25.31,10.26,48.22,26.85,64.81,16.58,16.58,39.49,26.84,64.8,26.84h2.34c27.2,0,52.48-14,66.92-37.05l13.79-23.66v.11l33.36-6.44v-6.44h-25.92.01s-85.07-.01-85.07-.01v-55.47Z"/>
  </svg>
</svg>
