<?xml version="1.0" encoding="UTF-8"?>
<svg id="Layer_2" data-name="Layer 2" xmlns="http://www.w3.org/2000/svg" viewBox="0 0 1743.4 319.86">
  <defs>
    <style>
      .cls-1 {
        opacity: .8;
      }

      .cls-2 {
        fill: #e3e1e4;
      }
    </style>
  </defs>
  <g id="Layer_1-2" data-name="Layer 1">
    <g>
      <g>
        <path class="cls-2" d="M657.86,248.74c-25.77-1.21-49.42-14.95-63.2-36.96l-13.25-23.52-33.24-6.42v-6.44l25.96-.06h122.08c22.88,0,45.6-8.76,61.21-23.13,17.43-16.02,28.35-39,28.35-64.54,0-28.82-13.9-54.38-35.37-70.35-14.6-10.88-34.59-17.32-54.19-17.32l-251.01.07v65.46s0,0,0,0v248.84h71.71l-1.04-95.41,18.71,29.87.24.39c24.2,38.63,65.72,62.8,110.97,64.98,2.18.12,4.39.17,6.59.17h125.26v-65.54h-116.06c-1.24,0-2.48-.02-3.72-.09ZM515.52,119.87v-41.93l-14.33-5.97v-6.44h177.27c5.96,0,11.45,1.91,15.92,5.16,1.17.84,2.27,1.79,3.29,2.8,4.92,4.92,7.96,11.72,7.96,19.21,0,15-12.16,27.17-27.17,27.17h-162.94Z"/>
        <path class="cls-2" d="M177.59,119.87h213.39v194.5h-72.97l2.3-95.41-18.71,29.87-.24.39c-25.39,40.53-69.84,65.15-117.66,65.15h-6.11v-.67l-.41.67h-17.73C72.64,314.37,0,243.99,0,157.18c0-43.41,18.16-82.7,47.17-111.14C76.18,17.59,116.05,0,159.45,0l225.16.07v65.46h-212.45c-50.62,0-91.65,41.04-91.65,91.65,0,25.31,10.26,48.22,26.85,64.81,16.58,16.58,39.49,26.84,64.8,26.84h2.34c27.2,0,52.48-14,66.92-37.05l13.79-23.66v.11l33.36-6.44v-6.44h-25.92.01s-85.07-.01-85.07-.01v-55.47Z"/>
      </g>
      <g class="cls-1">
        <g>
          <path class="cls-2" d="M900.33,1.34h114.23c94.46,0,139.27,64.14,139.27,158.16s-47.89,155.96-142.34,155.96h-111.15V1.34ZM1010.16,280.75c73.81,0,103.24-47.45,103.24-121.25s-26.36-123.89-100.17-123.89h-73.37v245.15h70.29Z"/>
          <path class="cls-2" d="M1330.43,283.83h-.44c-13.62,17.57-36.9,36.03-75.56,36.03-43.05,0-76.88-20.21-76.88-63.26,0-53.6,42.18-64.58,98.85-73.37,32.07-4.83,54.48-7.91,54.48-32.51s-18.45-39.98-50.96-39.98c-36.9,0-55.36,15.82-56.67,50.08h-34.27c1.32-43.93,30.31-76.88,90.5-76.88,48.33,0,83.91,18.01,83.91,72.05v108.08c0,18.45,4.39,28.56,24.16,24.16h1.32v25.92c-4.39,1.76-10.1,3.51-19.33,3.51-23.29,0-35.59-10.54-39.1-33.83ZM1331.31,231.55v-38.66c-11.86,7.47-32.51,13.18-51.84,16.69-35.59,6.59-64.14,12.74-64.14,46.13,0,30.31,23.72,36.9,47.01,36.9,47.45,0,68.97-34.71,68.97-61.07Z"/>
          <path class="cls-2" d="M1396.33,88.33h32.95V16.72h35.58v71.61h43.93v29h-43.93v147.62c0,15.82,8.35,21.09,22.85,21.09,7.03,0,14.94-1.76,18.89-3.08h1.32v30.75c-8.35,1.76-18.01,3.08-28.56,3.08-29,0-50.08-11.86-50.08-43.93V117.32h-32.95v-29Z"/>
          <path class="cls-2" d="M1684.97,283.83h-.44c-13.62,17.57-36.9,36.03-75.57,36.03-43.05,0-76.88-20.21-76.88-63.26,0-53.6,42.18-64.58,98.85-73.37,32.07-4.83,54.48-7.91,54.48-32.51s-18.45-39.98-50.96-39.98c-36.9,0-55.36,15.82-56.67,50.08h-34.27c1.32-43.93,30.31-76.88,90.5-76.88,48.33,0,83.91,18.01,83.91,72.05v108.08c0,18.45,4.39,28.56,24.16,24.16h1.32v25.92c-4.39,1.76-10.1,3.51-19.33,3.51-23.28,0-35.59-10.54-39.1-33.83ZM1685.85,231.55v-38.66c-11.86,7.47-32.51,13.18-51.84,16.69-35.59,6.59-64.14,12.74-64.14,46.13,0,30.31,23.72,36.9,47.01,36.9,47.45,0,68.97-34.71,68.97-61.07Z"/>
        </g>
      </g>
    </g>
  </g>
</svg>